<svg class="marks" width="814.49" height="614" viewBox="0 0 814.49 614" version="1.1" xmlns="http://www.w3.org/2000/svg" xmlns:xlink="http://www.w3.org/1999/xlink"><g transform="translate(0,0)"><g class="mark-group role-frame root"><g transform="translate(0,0)"><path class="background" d="M0,0h814.49v614h-814.49Z" style="fill: none;"></path><g><g class="mark-path role-mark" style="pointer-events: none;"><path transform="translate(0,0)" d="M340.47417118276775,449.9916492342077C340.47417118276775,413.9825043040415 156.52771673565965,413.9825043040415 156.52771673565965,377.9733593738753" style="fill: none; stroke: #ccc; stroke-width: 0.5;"></path><path transform="translate(0,0)" d="M156.52771673565965,377.9733593738753C156.52771673565965,341.97718927397824 145.51480600857118,341.97718927397824 145.51480600857118,305.98101917408115" style="fill: none; stroke: #ccc; stroke-width: 0.5;"></path><path transform="translate(0,0)" d="M349.50633477117947,89.9919008448034C349.50633477117947,54.006525422401694 349.48999999999756,54.006525422401694 349.48999999999756,18.02115" style="fill: none; stroke: #ccc; stroke-width: 0.5;"></path><path transform="translate(0,0)" d="M371.49292231307913,521.9991113872137C371.49292231307913,485.99538031071074 340.47417118276775,485.99538031071074 340.47417118276775,449.9916492342077" style="fill: none; stroke: #ccc; stroke-width: 0.5;"></path><path transform="translate(0,0)" d="M518.4878414184825,305.9813665112532C518.4878414184825,162.0244909709585 527.4603717856226,162.0244909709585 527.4603717856226,18.067615430663782" style="fill: none; stroke: #ccc; stroke-width: 0.5;"></path><path transform="translate(0,0)" d="M349.50633477117947,89.9919008448034C349.50633477117947,54.02975813773359 527.4603717856226,54.02975813773359 527.4603717856226,18.067615430663782" style="fill: none; stroke: #ccc; stroke-width: 0.5;"></path><path transform="translate(0,0)" d="M518.4878414184825,305.9813665112532C518.4878414184825,270.0063084515367 694.4135707783948,270.0063084515367 694.4135707783948,234.0312503918202" style="fill: none; stroke: #ccc; stroke-width: 0.5;"></path><path transform="translate(0,0)" d="M145.51480600857118,305.98101917408115C145.51480600857118,270.0019515594319 128.49540299761708,270.0019515594319 128.49540299761708,234.02288394478265" style="fill: none; stroke: #ccc; stroke-width: 0.5;"></path><path transform="translate(0,0)" d="M340.47417118276775,449.9916492342077C340.47417118276775,414.0063991295725 340.4899922493339,414.0063991295725 340.4899922493339,378.02114902493736" style="fill: none; stroke: #ccc; stroke-width: 0.5;"></path><path transform="translate(0,0)" d="M324.49354715023543,162.0312558433749C324.49354715023543,126.01157834408914 349.50633477117947,126.01157834408914 349.50633477117947,89.9919008448034" style="fill: none; stroke: #ccc; stroke-width: 0.5;"></path><path transform="translate(0,0)" d="M518.4878414184825,305.9813665112532C518.4878414184825,234.00631117731405 324.49354715023543,234.00631117731405 324.49354715023543,162.0312558433749" style="fill: none; stroke: #ccc; stroke-width: 0.5;"></path><path transform="translate(0,0)" d="M518.4516359442287,233.99582991938726C518.4516359442287,198.01354288138108 324.49354715023543,198.01354288138108 324.49354715023543,162.0312558433749" style="fill: none; stroke: #ccc; stroke-width: 0.5;"></path><path transform="translate(0,0)" d="M156.52771673565965,377.9733593738753C156.52771673565965,270.00230760862513 324.49354715023543,270.00230760862513 324.49354715023543,162.0312558433749" style="fill: none; stroke: #ccc; stroke-width: 0.5;"></path><path transform="translate(0,0)" d="M299.4629098868592,234.01499537127162C299.4629098868592,198.02312560732327 324.49354715023543,198.02312560732327 324.49354715023543,162.0312558433749" style="fill: none; stroke: #ccc; stroke-width: 0.5;"></path><path transform="translate(0,0)" d="M145.51480600857118,305.98101917408115C145.51480600857118,234.00613750872805 324.49354715023543,234.00613750872805 324.49354715023543,162.0312558433749" style="fill: none; stroke: #ccc; stroke-width: 0.5;"></path><path transform="translate(0,0)" d="M432.50017269781426,593.9354675023703C432.50017269781426,557.967289444792 371.49292231307913,557.967289444792 371.49292231307913,521.9991113872137" style="fill: none; stroke: #ccc; stroke-width: 0.5;"></path><path transform="translate(0,0)" d="M432.50017269781426,593.9354675023703C432.50017269781426,449.95841700681177 518.4878414184825,449.95841700681177 518.4878414184825,305.9813665112532" style="fill: none; stroke: #ccc; stroke-width: 0.5;"></path><path transform="translate(0,0)" d="M156.52771673565965,377.9733593738753C156.52771673565965,305.99417737257346 299.4629098868592,305.99417737257346 299.4629098868592,234.01499537127162" style="fill: none; stroke: #ccc; stroke-width: 0.5;"></path><path transform="translate(0,0)" d="M145.51480600857118,305.98101917408115C145.51480600857118,269.9980072726764 299.4629098868592,269.9980072726764 299.4629098868592,234.01499537127162" style="fill: none; stroke: #ccc; stroke-width: 0.5;"></path><path transform="translate(0,0)" d="M518.4878414184825,305.9813665112532C518.4878414184825,269.9885982153202 518.4516359442287,269.9885982153202 518.4516359442287,233.99582991938726" style="fill: none; stroke: #ccc; stroke-width: 0.5;"></path></g><g class="mark-symbol role-mark nodes"><path transform="translate(156.52771673565965,377.9733593738753)" d="M5,0A5,5,0,1,1,-5,0A5,5,0,1,1,5,0" style="fill: #3182bd;"></path><path transform="translate(145.51480600857118,305.98101917408115)" d="M5,0A5,5,0,1,1,-5,0A5,5,0,1,1,5,0" style="fill: #6baed6;"></path><path transform="translate(432.50017269781426,593.9354675023703)" d="M5,0A5,5,0,1,1,-5,0A5,5,0,1,1,5,0" style="fill: #9ecae1;"></path><path transform="translate(349.48999999999756,18.02115)" d="M5,0A5,5,0,1,1,-5,0A5,5,0,1,1,5,0" style="fill: #c6dbef;"></path><path transform="translate(340.47417118276775,449.9916492342077)" d="M5,0A5,5,0,1,1,-5,0A5,5,0,1,1,5,0" style="fill: #e6550d;"></path><path transform="translate(527.4603717856226,18.067615430663782)" d="M5,0A5,5,0,1,1,-5,0A5,5,0,1,1,5,0" style="fill: #fd8d3c;"></path><path transform="translate(694.4135707783948,234.0312503918202)" d="M5,0A5,5,0,1,1,-5,0A5,5,0,1,1,5,0" style="fill: #fdae6b;"></path><path transform="translate(128.49540299761708,234.02288394478265)" d="M5,0A5,5,0,1,1,-5,0A5,5,0,1,1,5,0" style="fill: #fdd0a2;"></path><path transform="translate(340.4899922493339,378.02114902493736)" d="M5,0A5,5,0,1,1,-5,0A5,5,0,1,1,5,0" style="fill: #31a354;"></path><path transform="translate(349.50633477117947,89.9919008448034)" d="M5,0A5,5,0,1,1,-5,0A5,5,0,1,1,5,0" style="fill: #74c476;"></path><path transform="translate(324.49354715023543,162.0312558433749)" d="M5,0A5,5,0,1,1,-5,0A5,5,0,1,1,5,0" style="fill: #a1d99b;"></path><path transform="translate(371.49292231307913,521.9991113872137)" d="M5,0A5,5,0,1,1,-5,0A5,5,0,1,1,5,0" style="fill: #c7e9c0;"></path><path transform="translate(518.4878414184825,305.9813665112532)" d="M5,0A5,5,0,1,1,-5,0A5,5,0,1,1,5,0" style="fill: #756bb1;"></path><path transform="translate(299.4629098868592,234.01499537127162)" d="M5,0A5,5,0,1,1,-5,0A5,5,0,1,1,5,0" style="fill: #9e9ac8;"></path><path transform="translate(518.4516359442287,233.99582991938726)" d="M5,0A5,5,0,1,1,-5,0A5,5,0,1,1,5,0" style="fill: #bcbddc;"></path></g><g class="mark-text role-mark labels"><text text-anchor="start" transform="translate(161.49,373)" style="font-family: sans-serif; font-size: 11px; font-weight: normal; fill: black;">IndelRealigner</text><text text-anchor="start" transform="translate(150.49,301)" style="font-family: sans-serif; font-size: 11px; font-weight: normal; fill: black;">RealignerTargetCreator</text><text text-anchor="start" transform="translate(437.49,589)" style="font-family: sans-serif; font-size: 11px; font-weight: normal; fill: black;">all</text><text text-anchor="start" transform="translate(354.49,13)" style="font-family: sans-serif; font-size: 11px; font-weight: normal; fill: black;">bwa_index</text><text text-anchor="start" transform="translate(345.49,445)" style="font-family: sans-serif; font-size: 11px; font-weight: normal; fill: black;">call_variants</text><text text-anchor="start" transform="translate(532.49,13)" style="font-family: sans-serif; font-size: 11px; font-weight: normal; fill: black;">fastp_pe</text><text text-anchor="start" transform="translate(699.49,229)" style="font-family: sans-serif; font-size: 11px; font-weight: normal; fill: black;">fastqc</text><text text-anchor="start" transform="translate(133.49,229)" style="font-family: sans-serif; font-size: 11px; font-weight: normal; fill: black;">genome_dict</text><text text-anchor="start" transform="translate(345.49,373)" style="font-family: sans-serif; font-size: 11px; font-weight: normal; fill: black;">genome_faidx</text><text text-anchor="start" transform="translate(354.49,85)" style="font-family: sans-serif; font-size: 11px; font-weight: normal; fill: black;">map_reads</text><text text-anchor="start" transform="translate(329.49,157)" style="font-family: sans-serif; font-size: 11px; font-weight: normal; fill: black;">mark_duplicates</text><text text-anchor="start" transform="translate(376.49,517)" style="font-family: sans-serif; font-size: 11px; font-weight: normal; fill: black;">merge_vcfs</text><text text-anchor="start" transform="translate(523.49,301)" style="font-family: sans-serif; font-size: 11px; font-weight: normal; fill: black;">multiqc</text><text text-anchor="start" transform="translate(304.49,229)" style="font-family: sans-serif; font-size: 11px; font-weight: normal; fill: black;">samtools_index</text><text text-anchor="start" transform="translate(523.49,229)" style="font-family: sans-serif; font-size: 11px; font-weight: normal; fill: black;">samtools_stats</text></g></g></g></g></g></svg>