<svg class="marks" width="784.74" height="470" viewBox="0 0 784.74 470" version="1.1" xmlns="http://www.w3.org/2000/svg" xmlns:xlink="http://www.w3.org/1999/xlink"><g transform="translate(0,0)"><g class="mark-group role-frame root"><g transform="translate(0,0)"><path class="background" d="M0,0h784.74v470h-784.74Z" style="fill: none;"></path><g><g class="mark-path role-mark" style="pointer-events: none;"><path transform="translate(0,0)" d="M402.7534529325643,89.99163410280529C402.7534529325643,54.00639205140264 402.7400000000903,54.00639205140264 402.7400000000903,18.02115" style="fill: none; stroke: #ccc; stroke-width: 0.5;"></path><path transform="translate(0,0)" d="M292.73165035059515,377.9966160266583C292.73165035059515,341.9896406188723 189.7638789714043,341.9896406188723 189.7638789714043,305.98266521108627" style="fill: none; stroke: #ccc; stroke-width: 0.5;"></path><path transform="translate(0,0)" d="M488.7454885759197,305.97041471959596C488.7454885759197,162.0189475947628 552.7045094722963,162.0189475947628 552.7045094722963,18.06748046992967" style="fill: none; stroke: #ccc; stroke-width: 0.5;"></path><path transform="translate(0,0)" d="M402.7534529325643,89.99163410280529C402.7534529325643,54.02955728636748 552.7045094722963,54.02955728636748 552.7045094722963,18.06748046992967" style="fill: none; stroke: #ccc; stroke-width: 0.5;"></path><path transform="translate(0,0)" d="M488.7454885759197,305.97041471959596C488.7454885759197,270.00083245438844 664.663574309541,270.00083245438844 664.663574309541,234.03125018918095" style="fill: none; stroke: #ccc; stroke-width: 0.5;"></path><path transform="translate(0,0)" d="M189.7638789714043,305.98266521108627C189.7638789714043,270.0048148263772 277.7070530090473,270.0048148263772 277.7070530090473,234.02696444166813" style="fill: none; stroke: #ccc; stroke-width: 0.5;"></path><path transform="translate(0,0)" d="M380.7209164463705,162.0230405227783C380.7209164463705,126.0073373127918 402.7534529325643,126.0073373127918 402.7534529325643,89.99163410280529" style="fill: none; stroke: #ccc; stroke-width: 0.5;"></path><path transform="translate(0,0)" d="M488.7454885759197,305.97041471959596C488.7454885759197,233.99672762118712 380.7209164463705,233.99672762118712 380.7209164463705,162.0230405227783" style="fill: none; stroke: #ccc; stroke-width: 0.5;"></path><path transform="translate(0,0)" d="M488.7213225576478,233.99761118391652C488.7213225576478,198.0103258533474 380.7209164463705,198.0103258533474 380.7209164463705,162.0230405227783" style="fill: none; stroke: #ccc; stroke-width: 0.5;"></path><path transform="translate(0,0)" d="M189.7638789714043,305.98266521108627C189.7638789714043,234.0028528669323 380.7209164463705,234.0028528669323 380.7209164463705,162.0230405227783" style="fill: none; stroke: #ccc; stroke-width: 0.5;"></path><path transform="translate(0,0)" d="M101.80832240993097,233.99714938992892C101.80832240993097,198.0100949563536 380.7209164463705,198.0100949563536 380.7209164463705,162.0230405227783" style="fill: none; stroke: #ccc; stroke-width: 0.5;"></path><path transform="translate(0,0)" d="M364.7549316528102,449.96504093182597C364.7549316528102,413.9808284792421 292.73165035059515,413.9808284792421 292.73165035059515,377.9966160266583" style="fill: none; stroke: #ccc; stroke-width: 0.5;"></path><path transform="translate(0,0)" d="M364.7549316528102,449.96504093182597C364.7549316528102,377.967727825711 488.7454885759197,377.967727825711 488.7454885759197,305.97041471959596" style="fill: none; stroke: #ccc; stroke-width: 0.5;"></path><path transform="translate(0,0)" d="M189.7638789714043,305.98266521108627C189.7638789714043,269.9899073005076 101.80832240993097,269.9899073005076 101.80832240993097,233.99714938992892" style="fill: none; stroke: #ccc; stroke-width: 0.5;"></path><path transform="translate(0,0)" d="M488.7454885759197,305.97041471959596C488.7454885759197,269.98401295175626 488.7213225576478,269.98401295175626 488.7213225576478,233.99761118391652" style="fill: none; stroke: #ccc; stroke-width: 0.5;"></path></g><g class="mark-symbol role-mark nodes"><path transform="translate(364.7549316528102,449.96504093182597)" d="M5,0A5,5,0,1,1,-5,0A5,5,0,1,1,5,0" style="fill: #3182bd;"></path><path transform="translate(402.7400000000903,18.02115)" d="M5,0A5,5,0,1,1,-5,0A5,5,0,1,1,5,0" style="fill: #6baed6;"></path><path transform="translate(189.7638789714043,305.98266521108627)" d="M5,0A5,5,0,1,1,-5,0A5,5,0,1,1,5,0" style="fill: #9ecae1;"></path><path transform="translate(552.7045094722963,18.06748046992967)" d="M5,0A5,5,0,1,1,-5,0A5,5,0,1,1,5,0" style="fill: #c6dbef;"></path><path transform="translate(664.663574309541,234.03125018918095)" d="M5,0A5,5,0,1,1,-5,0A5,5,0,1,1,5,0" style="fill: #e6550d;"></path><path transform="translate(277.7070530090473,234.02696444166813)" d="M5,0A5,5,0,1,1,-5,0A5,5,0,1,1,5,0" style="fill: #fd8d3c;"></path><path transform="translate(402.7534529325643,89.99163410280529)" d="M5,0A5,5,0,1,1,-5,0A5,5,0,1,1,5,0" style="fill: #fdae6b;"></path><path transform="translate(380.7209164463705,162.0230405227783)" d="M5,0A5,5,0,1,1,-5,0A5,5,0,1,1,5,0" style="fill: #fdd0a2;"></path><path transform="translate(292.73165035059515,377.9966160266583)" d="M5,0A5,5,0,1,1,-5,0A5,5,0,1,1,5,0" style="fill: #31a354;"></path><path transform="translate(488.7454885759197,305.97041471959596)" d="M5,0A5,5,0,1,1,-5,0A5,5,0,1,1,5,0" style="fill: #74c476;"></path><path transform="translate(101.80832240993097,233.99714938992892)" d="M5,0A5,5,0,1,1,-5,0A5,5,0,1,1,5,0" style="fill: #a1d99b;"></path><path transform="translate(488.7213225576478,233.99761118391652)" d="M5,0A5,5,0,1,1,-5,0A5,5,0,1,1,5,0" style="fill: #c7e9c0;"></path></g><g class="mark-text role-mark labels"><text text-anchor="start" transform="translate(369.74,445)" style="font-family: sans-serif; font-size: 11px; font-weight: normal; fill: black;">all</text><text text-anchor="start" transform="translate(407.74,13)" style="font-family: sans-serif; font-size: 11px; font-weight: normal; fill: black;">bwa_index</text><text text-anchor="start" transform="translate(194.74,301)" style="font-family: sans-serif; font-size: 11px; font-weight: normal; fill: black;">call_variants</text><text text-anchor="start" transform="translate(557.74,13)" style="font-family: sans-serif; font-size: 11px; font-weight: normal; fill: black;">fastp_pe</text><text text-anchor="start" transform="translate(669.74,229)" style="font-family: sans-serif; font-size: 11px; font-weight: normal; fill: black;">fastqc</text><text text-anchor="start" transform="translate(282.74,229)" style="font-family: sans-serif; font-size: 11px; font-weight: normal; fill: black;">genome_faidx</text><text text-anchor="start" transform="translate(407.74,85)" style="font-family: sans-serif; font-size: 11px; font-weight: normal; fill: black;">map_reads</text><text text-anchor="start" transform="translate(385.74,157)" style="font-family: sans-serif; font-size: 11px; font-weight: normal; fill: black;">mark_duplicates</text><text text-anchor="start" transform="translate(297.74,373)" style="font-family: sans-serif; font-size: 11px; font-weight: normal; fill: black;">merge_vcfs</text><text text-anchor="start" transform="translate(493.74,301)" style="font-family: sans-serif; font-size: 11px; font-weight: normal; fill: black;">multiqc</text><text text-anchor="start" transform="translate(106.74,229)" style="font-family: sans-serif; font-size: 11px; font-weight: normal; fill: black;">samtools_index</text><text text-anchor="start" transform="translate(493.74,229)" style="font-family: sans-serif; font-size: 11px; font-weight: normal; fill: black;">samtools_stats</text></g></g></g></g></g></svg>